<svg width="100%" height="134" viewBox="0 0 1280 134" fill="none" xmlns="http://www.w3.org/2000/svg" preserveAspectRatio="none">
<path fill-rule="evenodd" clip-rule="evenodd" d="M0 52.2373L42.6667 43.1525C85.3333 34.0678 170.667 15.8983 256 6.81356C341.333 -2.27119 426.667 -2.27119 512 6.81356C597.333 15.8983 682.667 34.0678 768 38.6102C853.333 43.1525 938.667 34.0678 1024 31.7966C1109.33 29.5254 1194.67 34.0678 1237.33 36.339L1280 38.6102V134H1237.33C1194.67 134 1109.33 134 1024 134C938.667 134 853.333 134 768 134C682.667 134 597.333 134 512 134C426.667 134 341.333 134 256 134C170.667 134 85.3333 134 42.6667 134H0V52.2373Z" fill="#FEFEFE"/>
</svg>
