<svg width="1279" height="143" viewBox="0 0 1279 143" fill="none" xmlns="http://www.w3.org/2000/svg" preserveAspectRatio="none">
<path fill-rule="evenodd" clip-rule="evenodd" d="M0 86.9846L42.6667 96.6495C85.3333 106.315 170.667 125.644 256 135.309C341.333 144.974 426.667 144.974 512 135.309C597.333 125.644 682.667 106.315 768 101.482C853.333 96.6495 938.667 106.315 1024 108.731C1109.33 111.147 1194.67 106.315 1237.33 103.898L1280 101.482V-7.62939e-05H1237.33C1194.67 -7.62939e-05 1109.33 -7.62939e-05 1024 -7.62939e-05C938.667 -7.62939e-05 853.333 -7.62939e-05 768 -7.62939e-05C682.667 -7.62939e-05 597.333 -7.62939e-05 512 -7.62939e-05C426.667 -7.62939e-05 341.333 -7.62939e-05 256 -7.62939e-05C170.667 -7.62939e-05 85.3333 -7.62939e-05 42.6667 -7.62939e-05H0V86.9846Z" fill="#FEFEFE"/>
</svg>
