 <svg viewBox="0 0 478 154" fill="none" xmlns="http://www.w3.org/2000/svg"
  style="width:100%; height:auto;">
  <path fill-rule="evenodd" clip-rule="evenodd"
  d="M477.101 -139.657L459.207 -128.49C440.771 -116.984 419.294 -90.2238 392.5 -52.2717C365.706 -14.3197 356.5 3.9999 325.5 40.9999C301 64.9999 249.5 118.5 189.905 124.503C113.5 136.5 75.5431 134.198 26.4998 136.5C-22.5435 138.802 -60.584 125.151 -100.092 142.732C-139.6 160.312 -194.458 152.09 -222.429 148.318L-249.858 144.207L-288 83.0925L-270.107 71.9249C-251.671 60.4189 -215.884 38.0839 -179.554 15.4104C-143.225 -7.26314 -107.438 -29.5982 -71.1085 -52.2717C-34.7792 -74.9452 1.00794 -97.2803 37.3373 -119.954C73.6666 -142.627 109.454 -164.962 145.783 -187.636C182.112 -210.309 217.9 -232.644 254.229 -255.318C290.558 -277.991 326.345 -300.327 344.781 -311.833L362.675 -323L477.101 -139.657Z"
  fill="white"/>
 </svg>
