<svg width="606" height="200" viewBox="0 0 606 200" fill="none" xmlns="http://www.w3.org/2000/svg">
<path d="M162.02 62.3995V87.4595L137.17 82.4595V37.7695H137.27L162.02 62.3995Z" fill="#3E527A"/>
<path d="M86.21 37.7695L82.75 54.9895L81.21 62.6095H75.09L62.63 75.0195V82.4495L53.27 84.3295L37.79 87.4495V62.3895L62.52 37.7695H86.21Z" fill="#3E527A"/>
<path d="M112.34 62.6302L99.9002 75.0202L87.4302 62.6002L99.8702 0.700195L112.34 62.6302Z" fill="#D87046"/>
<path d="M124.75 37.7695V62.6095H118.53L113.54 37.7695H124.75Z" fill="#3E527A"/>
<path d="M112.34 137.12L99.8702 199.13L87.4102 137.16L99.9002 124.73L112.34 137.12Z" fill="#D87046"/>
<path d="M74.9302 99.8705L62.4202 112.331L0.660156 99.9105L62.4802 87.4805L74.9302 99.8705Z" fill="#D87046"/>
<path d="M62.63 117.37V168.02L37.79 143.28V112.38L62.63 117.37Z" fill="#3E527A"/>
<path d="M199.09 99.9102L137.38 112.33L124.87 99.8702L137.31 87.4902L199.09 99.9102Z" fill="#D87046"/>
<path d="M162.02 112.36V137.1L152.09 146.97L140.27 158.74L138.27 160.74L137.17 161.83L137.11 161.89L128.76 147.28L124.75 140.26L114.3 121.96L112.33 118.51V130.92L105.17 123.8L103 121.64L99.9 118.55L91.96 126.45L87.48 130.92V87.46H112.33V87.4699L119.84 98.7L122.32 102.41L124.75 106.06L128.36 111.46L132.88 118.22L137.17 124.65V117.37L162.02 112.36Z" fill="#3E527A"/>
<path d="M491.36 131.14H472.73V143.57H491.36V131.14Z" fill="#D87046"/>
<path d="M447.88 155.99H423.04V168.41H447.88V155.99Z" fill="#D87046"/>
<path d="M497.58 155.99H472.73V168.41H497.58V155.99Z" fill="#D87046"/>
<path d="M416.83 106.3H404.41V168.41H416.83V106.3Z" fill="#D87046"/>
<path d="M466.52 106.3H454.1V168.41H466.52V106.3Z" fill="#D87046"/>
<path d="M497.58 106.3H472.73V118.72H497.58V106.3Z" fill="#D87046"/>
<path d="M423.04 56.5996H410.62V100.08H423.04V56.5996Z" fill="#3E527A"/>
<path d="M255.33 62.8203H230.48V75.2403H255.33V62.8203Z" fill="#3E527A"/>
<path d="M224.28 37.9697H211.85V100.09H224.28V37.9697Z" fill="#3E527A"/>
<path d="M261.54 37.9697H230.48V50.3998H261.54V37.9697Z" fill="#3E527A"/>
<path d="M348.51 37.9697H336.08V100.09H348.51V37.9697Z" fill="#3E527A"/>
<path d="M384.71 50.3898C383.901 48.095 382.643 45.984 381.01 44.1798C380.562 43.6621 380.078 43.1775 379.56 42.7298C377.755 41.0931 375.64 39.8351 373.34 39.0298C371.349 38.3238 369.252 37.9652 367.14 37.9698H354.71V50.3898H367.14C368.745 50.4542 370.263 51.1371 371.376 52.2956C372.489 53.4541 373.111 54.9983 373.111 56.6048C373.111 58.2113 372.489 59.7554 371.376 60.9139C370.263 62.0724 368.745 62.7554 367.14 62.8198H354.71V75.2398H360.92C362.53 75.3389 364.049 76.0226 365.19 77.1625C366.332 78.3023 367.018 79.8198 367.12 81.4298C366.813 86.3448 367.949 91.2425 370.39 95.5198C371.279 97.0247 372.332 98.4265 373.53 99.6998L385.75 100.06C381.683 95.2182 379.481 89.0825 379.54 82.7598C379.54 82.5698 379.54 82.3398 379.54 82.0898C379.54 81.8398 379.54 81.6498 379.49 81.4298C379.275 79.1969 378.486 77.0575 377.2 75.2198C376.712 74.4932 376.145 73.8225 375.51 73.2198C376.978 72.4815 378.34 71.5499 379.56 70.4498C380.065 69.9985 380.539 69.5141 380.98 68.9998C384.045 65.585 385.74 61.1583 385.74 56.5698C385.745 54.4667 385.397 52.3777 384.71 50.3898ZM373.34 93.9998V93.8498H373.58L373.34 93.9998Z" fill="#3E527A"/>
<path d="M441.68 37.9697H391.99V50.3998H441.68V37.9697Z" fill="#3E527A"/>
<path d="M466.52 87.14V99.86C464.367 99.5558 462.273 98.9252 460.31 97.99C456.593 96.2285 453.452 93.4476 451.253 89.9706C449.054 86.4937 447.888 82.4638 447.89 78.35V38H460.31V78.38C460.316 80.3023 460.915 82.176 462.027 83.7442C463.139 85.3124 464.708 86.4986 466.52 87.14Z" fill="#3E527A"/>
<path d="M491.36 38V78.38C491.362 82.4861 490.2 86.5087 488.009 89.9813C485.818 93.4539 482.687 96.2343 478.98 98C477.017 98.9352 474.923 99.5658 472.77 99.87V87.14C474.587 86.4968 476.16 85.3061 477.272 83.7319C478.384 82.1577 478.981 80.2774 478.98 78.35V38H491.36Z" fill="#3E527A"/>
<path d="M273.98 68.9996C273.983 73.9415 275.948 78.6801 279.443 82.1736C282.939 85.6671 287.678 87.6296 292.62 87.6296V100.05C288.495 100.124 284.397 99.3751 280.564 97.8477C276.731 96.3202 273.242 94.0445 270.298 91.1534C267.355 88.2624 265.017 84.8139 263.421 81.0093C261.825 77.2048 261.003 73.1203 261.003 68.9946C261.003 64.8688 261.825 60.7844 263.421 56.9798C265.017 53.1752 267.355 49.7267 270.298 46.8357C273.242 43.9446 276.731 41.669 280.564 40.1415C284.397 38.6141 288.495 37.8655 292.62 37.9396V50.3596C287.677 50.3622 282.938 52.3269 279.443 55.822C275.948 59.3171 273.983 64.0567 273.98 68.9996Z" fill="#3E527A"/>
<path d="M510 69.0704V100.08H497.58V48.4004L510 69.0704Z" fill="#3E527A"/>
<path d="M547.26 100.08H534.84L510 58.7397L497.58 38.0598V37.9697H509.95L510 38.0497L534.85 79.4197L547.26 100.08Z" fill="#3E527A"/>
<path d="M547.27 37.9697V89.7598L534.85 69.0798V37.9697H547.27Z" fill="#3E527A"/>
<path d="M605.2 100.08H592.78L588.65 87.6597H574.2L578.33 75.2397H584.51L581.43 65.9398L578.32 56.5997L572.12 75.2397L567.98 87.6597L563.85 100.08H553.49V93.8998L555.56 87.6597L559.7 75.2397L572.09 37.9697H584.54L587.63 47.2698L596.93 75.2397L601.07 87.6597L605.2 100.08Z" fill="#3E527A"/>
<path d="M224.22 137.13V168.14H211.8V116.45L224.22 137.13Z" fill="#D87046"/>
<path d="M261.48 168.14H249.06L224.22 126.789L211.8 106.109V106.02H224.17L224.22 106.109L249.07 147.469L261.48 168.14Z" fill="#D87046"/>
<path d="M261.49 106.02V157.81L249.07 137.13V106.02H261.49Z" fill="#D87046"/>
<path d="M319.42 168.14H307L302.87 155.719H288.42L292.55 143.289H298.73L295.65 134L292.53 124.65L286.34 143.289L282.2 155.719L278.07 168.14H267.7V161.96L269.78 155.719L273.92 143.289L286.31 106.02H298.76L301.85 115.33L311.15 143.289L315.29 155.719L319.42 168.14Z" fill="#D87046"/>
<path d="M360.97 106.3L352.19 132.69L340.3 168.41H336.08V143.78L339.77 132.69L348.55 106.3H360.97Z" fill="#D87046"/>
<path d="M329.87 143.23V168.41H325.83L313.94 132.69L305.16 106.3H317.58L326.37 132.69L329.87 143.23Z" fill="#D87046"/>
<path d="M400.17 168.14H387.75L383.62 155.719H369.16L373.3 143.289H379.48L376.4 134L373.28 124.65L367.09 143.289L362.95 155.719L358.82 168.14H348.45V161.96L350.53 155.719L354.67 143.289L367.06 106.02H379.51L382.6 115.33L391.9 143.289L396.04 155.719L400.17 168.14Z" fill="#D87046"/>
<path d="M329.87 69C329.867 77.2359 326.594 85.1336 320.769 90.9563C314.945 96.779 307.046 100.05 298.81 100.05V87.66C301.294 87.7175 303.764 87.2781 306.075 86.3674C308.386 85.4568 310.492 84.0934 312.269 82.3572C314.046 80.6211 315.457 78.5473 316.421 76.2578C317.385 73.9683 317.882 71.5092 317.882 69.025C317.882 66.5409 317.385 64.0817 316.421 61.7922C315.457 59.5026 314.046 57.4289 312.269 55.6927C310.492 53.9566 308.386 52.5932 306.075 51.6826C303.764 50.7719 301.294 50.3325 298.81 50.39V38C307.036 38.0026 314.926 41.2676 320.749 47.079C326.571 52.8903 329.852 60.7736 329.87 69Z" fill="#3E527A"/>
</svg>
